<?xml version="1.0" encoding="UTF-8" standalone="no"?>
<!DOCTYPE svg PUBLIC "-//W3C//DTD SVG 1.1//EN"
 "http://www.w3.org/Graphics/SVG/1.1/DTD/svg11.dtd">
<!-- Generated by graphviz version 2.47.0 (20210316.0004)
 -->
<!-- Title: dependencies Pages: 1 -->
<svg width="786pt" height="290pt"
 viewBox="0.00 0.00 786.00 290.00" xmlns="http://www.w3.org/2000/svg" xmlns:xlink="http://www.w3.org/1999/xlink">
<g id="graph0" class="graph" transform="scale(1 1) rotate(0) translate(4 286)">
<title>dependencies</title>
<polygon fill="white" stroke="transparent" points="-4,4 -4,-286 782,-286 782,4 -4,4"/>
<text text-anchor="start" x="368.01" y="-42.4" font-family="sans-serif" font-weight="bold" font-size="14.00">Legend</text>
<polygon fill="#ffffb3" stroke="transparent" points="155,-10 155,-30 175,-30 175,-10 155,-10"/>
<text text-anchor="start" x="178.63" y="-15.4" font-family="sans-serif" font-size="14.00"> &#160;Declarations</text>
<polygon fill="#8dd3c7" stroke="transparent" points="268,-10 268,-30 288,-30 288,-10 268,-10"/>
<text text-anchor="start" x="291.73" y="-15.4" font-family="sans-serif" font-size="14.00"> &#160;Module</text>
<polygon fill="#80b1d3" stroke="transparent" points="354,-10 354,-30 374,-30 374,-10 354,-10"/>
<text text-anchor="start" x="377.78" y="-15.4" font-family="sans-serif" font-size="14.00"> &#160;Bootstrap</text>
<polygon fill="#fdb462" stroke="transparent" points="451,-10 451,-30 471,-30 471,-10 451,-10"/>
<text text-anchor="start" x="474.67" y="-15.4" font-family="sans-serif" font-size="14.00"> &#160;Providers</text>
<polygon fill="#fb8072" stroke="transparent" points="547,-10 547,-30 567,-30 567,-10 547,-10"/>
<text text-anchor="start" x="570.73" y="-15.4" font-family="sans-serif" font-size="14.00"> &#160;Exports</text>
<g id="clust1" class="cluster">
<title>cluster_AppModule</title>
<polygon fill="none" stroke="black" stroke-dasharray="1,5" points="8,-70 8,-274 430,-274 430,-70 8,-70"/>
</g>
<g id="clust2" class="cluster">
<title>cluster_AppModule_declarations</title>
<polygon fill="none" stroke="black" points="16,-78 16,-130 138,-130 138,-78 16,-78"/>
</g>
<g id="clust4" class="cluster">
<title>cluster_AppModule_imports</title>
<polygon fill="none" stroke="black" points="146,-78 146,-130 422,-130 422,-78 146,-78"/>
</g>
<g id="clust6" class="cluster">
<title>cluster_AppModule_bootstrap</title>
<polygon fill="none" stroke="black" points="156,-214 156,-266 280,-266 280,-214 156,-214"/>
</g>
<g id="clust14" class="cluster">
<title>cluster_FormYupModule</title>
<polygon fill="none" stroke="black" stroke-dasharray="1,5" points="438,-138 438,-206 770,-206 770,-138 438,-138"/>
</g>
<g id="clust15" class="cluster">
<title>cluster_FormYupModule_declarations</title>
<polygon fill="none" stroke="black" points="610,-146 610,-198 762,-198 762,-146 610,-146"/>
</g>
<g id="clust18" class="cluster">
<title>cluster_FormYupModule_exports</title>
<polygon fill="none" stroke="black" points="446,-146 446,-198 602,-198 602,-146 446,-146"/>
</g>
<!-- AppComponent -->
<g id="node1" class="node">
<title>AppComponent</title>
<polygon fill="#ffffb3" stroke="black" points="129.94,-122 24.06,-122 24.06,-86 129.94,-86 129.94,-122"/>
<text text-anchor="middle" x="77" y="-99.8" font-family="Times,serif" font-size="14.00">AppComponent</text>
</g>
<!-- AppModule -->
<g id="node2" class="node">
<title>AppModule</title>
<polygon fill="#8dd3c7" stroke="black" points="259.66,-190 256.66,-194 235.66,-194 232.66,-190 176.34,-190 176.34,-154 259.66,-154 259.66,-190"/>
<text text-anchor="middle" x="218" y="-167.8" font-family="Times,serif" font-size="14.00">AppModule</text>
</g>
<!-- AppComponent&#45;&gt;AppModule -->
<g id="edge1" class="edge">
<title>AppComponent&#45;&gt;AppModule</title>
<path fill="none" stroke="black" d="M77,-122.22C77,-142.37 77,-172 77,-172 77,-172 166.08,-172 166.08,-172"/>
<polygon fill="black" stroke="black" points="166.08,-175.5 176.08,-172 166.08,-168.5 166.08,-175.5"/>
</g>
<!-- AppComponent  -->
<g id="node5" class="node">
<title>AppComponent </title>
<polygon fill="#80b1d3" stroke="black" points="272.44,-258 163.56,-258 163.56,-222 272.44,-222 272.44,-258"/>
<text text-anchor="middle" x="218" y="-235.8" font-family="Times,serif" font-size="14.00">AppComponent </text>
</g>
<!-- AppModule&#45;&gt;AppComponent  -->
<g id="edge4" class="edge">
<title>AppModule&#45;&gt;AppComponent </title>
<path fill="none" stroke="black" stroke-dasharray="1,5" d="M218,-190.22C218,-190.22 218,-211.73 218,-211.73"/>
<polygon fill="black" stroke="black" points="214.5,-211.73 218,-221.73 221.5,-211.73 214.5,-211.73"/>
</g>
<!-- AppRoutingModule -->
<g id="node3" class="node">
<title>AppRoutingModule</title>
<polygon fill="#8dd3c7" stroke="black" points="282.27,-122 279.27,-126 258.27,-126 255.27,-122 153.73,-122 153.73,-86 282.27,-86 282.27,-122"/>
<text text-anchor="middle" x="218" y="-99.8" font-family="Times,serif" font-size="14.00">AppRoutingModule</text>
</g>
<!-- AppRoutingModule&#45;&gt;AppModule -->
<g id="edge2" class="edge">
<title>AppRoutingModule&#45;&gt;AppModule</title>
<path fill="none" stroke="black" d="M218,-122.22C218,-122.22 218,-143.73 218,-143.73"/>
<polygon fill="black" stroke="black" points="214.5,-143.73 218,-153.73 221.5,-143.73 214.5,-143.73"/>
</g>
<!-- FormYupModule -->
<g id="node4" class="node">
<title>FormYupModule</title>
<polygon fill="#8dd3c7" stroke="black" points="413.99,-122 410.99,-126 389.99,-126 386.99,-122 300.01,-122 300.01,-86 413.99,-86 413.99,-122"/>
<text text-anchor="middle" x="357" y="-99.8" font-family="Times,serif" font-size="14.00">FormYupModule</text>
</g>
<!-- FormYupModule&#45;&gt;AppModule -->
<g id="edge3" class="edge">
<title>FormYupModule&#45;&gt;AppModule</title>
<path fill="none" stroke="black" d="M338,-122.29C338,-144.21 338,-178 338,-178 338,-178 269.97,-178 269.97,-178"/>
<polygon fill="black" stroke="black" points="269.97,-174.5 259.97,-178 269.97,-181.5 269.97,-174.5"/>
</g>
<!-- FormYupComponent  -->
<g id="node7" class="node">
<title>FormYupComponent </title>
<polygon fill="#fb8072" stroke="black" points="593.77,-190 454.23,-190 454.23,-154 593.77,-154 593.77,-190"/>
<text text-anchor="middle" x="524" y="-167.8" font-family="Times,serif" font-size="14.00">FormYupComponent </text>
</g>
<!-- FormYupModule&#45;&gt;FormYupComponent  -->
<g id="edge6" class="edge">
<title>FormYupModule&#45;&gt;FormYupComponent </title>
<path fill="none" stroke="black" stroke-dasharray="5,2" d="M376,-122.27C376,-140.56 376,-166 376,-166 376,-166 444.33,-166 444.33,-166"/>
<polygon fill="black" stroke="black" points="444.33,-169.5 454.33,-166 444.33,-162.5 444.33,-169.5"/>
</g>
<!-- FormYupComponent -->
<g id="node6" class="node">
<title>FormYupComponent</title>
<polygon fill="#ffffb3" stroke="black" points="753.77,-190 618.23,-190 618.23,-154 753.77,-154 753.77,-190"/>
<text text-anchor="middle" x="686" y="-167.8" font-family="Times,serif" font-size="14.00">FormYupComponent</text>
</g>
<!-- FormYupComponent&#45;&gt;FormYupModule -->
<g id="edge5" class="edge">
<title>FormYupComponent&#45;&gt;FormYupModule</title>
<path fill="none" stroke="black" d="M686,-153.78C686,-133.63 686,-104 686,-104 686,-104 424.31,-104 424.31,-104"/>
<polygon fill="black" stroke="black" points="424.31,-100.5 414.31,-104 424.31,-107.5 424.31,-100.5"/>
</g>
</g>
</svg>
